<svg id="Layer_1" data-name="Layer 1" xmlns="http://www.w3.org/2000/svg" viewBox="0 0 251.32 76.32"><defs><style>.cls-1{fill:#1a1818;}.cls-2{fill:#1c816e;}.cls-3{fill:#5bb9a4;}.cls-4{fill:#123a31;}</style></defs><path class="cls-1" d="M171.16,44a6.12,6.12,0,0,1-2.34-2.34,7.13,7.13,0,0,1,0-6.79,6.12,6.12,0,0,1,2.34-2.34,6.47,6.47,0,0,1,3.27-.84,6.55,6.55,0,0,1,3.29.84,6.13,6.13,0,0,1,2.33,2.33,7.25,7.25,0,0,1,0,6.81A6.13,6.13,0,0,1,177.72,44a6.55,6.55,0,0,1-3.29.85A6.48,6.48,0,0,1,171.16,44Zm5.7-1.24a4.41,4.41,0,0,0,1.7-1.8,6.19,6.19,0,0,0,0-5.4,4.49,4.49,0,0,0-1.69-1.79,5.11,5.11,0,0,0-4.88,0,4.49,4.49,0,0,0-1.69,1.79,6.19,6.19,0,0,0,0,5.4,4.41,4.41,0,0,0,1.7,1.8,5.07,5.07,0,0,0,4.86,0Z"/><path class="cls-1" d="M183.12,36.89a4.55,4.55,0,0,1,1.74-1.82,5,5,0,0,1,2.56-.65,5,5,0,0,1,3.08.91,4.25,4.25,0,0,1,1.6,2.51h-1.81a2.58,2.58,0,0,0-1-1.46,3.1,3.1,0,0,0-1.86-.54,3,3,0,0,0-2.33,1,4.07,4.07,0,0,0-.88,2.8,4.14,4.14,0,0,0,.88,2.83,3,3,0,0,0,2.33,1,3.11,3.11,0,0,0,1.85-.52,2.66,2.66,0,0,0,1-1.48h1.81A4.41,4.41,0,0,1,190.47,44a4.88,4.88,0,0,1-3.05.93,5,5,0,0,1-2.56-.64,4.65,4.65,0,0,1-1.74-1.83,5.85,5.85,0,0,1-.63-2.78A5.71,5.71,0,0,1,183.12,36.89Z"/><path class="cls-1" d="M196.39,36v6A1.43,1.43,0,0,0,196.7,43a1.56,1.56,0,0,0,1.09.3H199v1.43h-1.51a3,3,0,0,1-2.11-.65,2.77,2.77,0,0,1-.7-2.13V36h-1.32V34.59h1.32V32h1.68v2.55H199V36Z"/><path class="cls-1" d="M202.9,44.24a4.71,4.71,0,0,1-1.81-1.84,5.64,5.64,0,0,1-.65-2.77,5.45,5.45,0,0,1,.67-2.74A4.56,4.56,0,0,1,203,35.06a5.62,5.62,0,0,1,5.21,0A4.6,4.6,0,0,1,210,36.88a5.87,5.87,0,0,1,0,5.52,4.93,4.93,0,0,1-1.87,1.84,5.42,5.42,0,0,1-2.63.64A5.2,5.2,0,0,1,202.9,44.24ZM207.18,43a3.24,3.24,0,0,0,1.29-1.28,4.12,4.12,0,0,0,.49-2.07,4.17,4.17,0,0,0-.48-2.07,3.18,3.18,0,0,0-1.26-1.26,3.49,3.49,0,0,0-1.68-.42,3.44,3.44,0,0,0-1.69.42,2.94,2.94,0,0,0-1.23,1.26,4.28,4.28,0,0,0-.47,2.07,4.42,4.42,0,0,0,.46,2.09A3,3,0,0,0,203.82,43a3.35,3.35,0,0,0,1.66.41A3.6,3.6,0,0,0,207.18,43Z"/><path class="cls-1" d="M216.09,35a4.5,4.5,0,0,1,2.27-.57,4.71,4.71,0,0,1,2.46.65,4.58,4.58,0,0,1,1.72,1.82,5.67,5.67,0,0,1,.63,2.73,5.78,5.78,0,0,1-.63,2.73,4.59,4.59,0,0,1-4.18,2.53,4.54,4.54,0,0,1-2.3-.57,4,4,0,0,1-1.49-1.46v1.87h-1.68V31h1.68v5.43A4.16,4.16,0,0,1,216.09,35Zm4.9,2.63a3.26,3.26,0,0,0-1.25-1.3,3.5,3.5,0,0,0-1.73-.44,3.41,3.41,0,0,0-1.71.45,3.32,3.32,0,0,0-1.25,1.32,4,4,0,0,0-.48,2,4,4,0,0,0,.48,2A3.29,3.29,0,0,0,216.3,43a3.51,3.51,0,0,0,3.44,0A3.29,3.29,0,0,0,221,41.64a4.18,4.18,0,0,0,.46-2A4.1,4.1,0,0,0,221,37.62Z"/><path class="cls-1" d="M234.57,40.28h-8.09a3.17,3.17,0,0,0,3.29,3.18,3.12,3.12,0,0,0,1.82-.51,2.62,2.62,0,0,0,1-1.36h1.82A4.41,4.41,0,0,1,232.8,44a4.89,4.89,0,0,1-3,.91,5.14,5.14,0,0,1-2.58-.64,4.64,4.64,0,0,1-1.78-1.84,5.64,5.64,0,0,1-.65-2.77,5.78,5.78,0,0,1,.63-2.75,4.35,4.35,0,0,1,1.76-1.82,5.22,5.22,0,0,1,2.62-.64,5.08,5.08,0,0,1,2.55.63A4.31,4.31,0,0,1,234,36.78a5.08,5.08,0,0,1,.6,2.48A9.26,9.26,0,0,1,234.57,40.28Zm-2.1-3a2.8,2.8,0,0,0-1.16-1,3.48,3.48,0,0,0-1.62-.37,3.13,3.13,0,0,0-2.17.82,3.26,3.26,0,0,0-1,2.25h6.39A3.11,3.11,0,0,0,232.47,37.26Z"/><path class="cls-1" d="M239.79,34.88a3.94,3.94,0,0,1,2-.48v1.74h-.44c-1.89,0-2.83,1-2.83,3.07v5.51h-1.68V34.59h1.68v1.64A3.22,3.22,0,0,1,239.79,34.88Z"/><path class="cls-1" d="M171.79,64.27A15.35,15.35,0,0,0,174,61.74a4.58,4.58,0,0,0,.92-2.6,2.88,2.88,0,0,0-.58-1.89,2.34,2.34,0,0,0-1.88-.7,2.47,2.47,0,0,0-2,.79,3.29,3.29,0,0,0-.75,2.1h-1.63a4.44,4.44,0,0,1,1.26-3.2,4.26,4.26,0,0,1,3.05-1.13,4.18,4.18,0,0,1,3,1.06,3.77,3.77,0,0,1,1.12,2.9,5.49,5.49,0,0,1-.91,3,13.14,13.14,0,0,1-2.08,2.55c-.78.74-1.77,1.59-3,2.56H177v1.41h-8.89v-1.2Q170.45,65.48,171.79,64.27Z"/><path class="cls-1" d="M180.22,56.05a4.69,4.69,0,0,1,3.06-1,4.9,4.9,0,0,1,2.18.46,3.2,3.2,0,0,1,1.38,1.23,3.23,3.23,0,0,1,.47,1.75,3.12,3.12,0,0,1-.65,2A3,3,0,0,1,185,61.58v.09a3.43,3.43,0,0,1,1.9,1.17,3.5,3.5,0,0,1,.7,2.27,3.78,3.78,0,0,1-.48,1.9,3.31,3.31,0,0,1-1.44,1.32,5.12,5.12,0,0,1-2.31.48,4.9,4.9,0,0,1-3.22-1,4,4,0,0,1-1.4-2.91h1.63a2.74,2.74,0,0,0,.9,1.81,3,3,0,0,0,2.07.7,2.67,2.67,0,0,0,2-.67,2.36,2.36,0,0,0,.67-1.75,2.19,2.19,0,0,0-.92-2,5.11,5.11,0,0,0-2.79-.61h-.43V61h.45a5,5,0,0,0,2.57-.56,1.85,1.85,0,0,0,.87-1.69,2,2,0,0,0-.64-1.57,2.56,2.56,0,0,0-1.82-.59,2.74,2.74,0,0,0-1.85.59,2.34,2.34,0,0,0-.83,1.59H178.9A3.66,3.66,0,0,1,180.22,56.05Z"/><path class="cls-1" d="M197.13,61.23v1.42h-7.38V61.23Z"/><path class="cls-1" d="M203.49,64.27a15.35,15.35,0,0,0,2.24-2.53,4.58,4.58,0,0,0,.92-2.6,2.83,2.83,0,0,0-.59-1.89,2.31,2.31,0,0,0-1.87-.7,2.47,2.47,0,0,0-1.95.79,3.29,3.29,0,0,0-.75,2.1h-1.63a4.44,4.44,0,0,1,1.26-3.2,4.24,4.24,0,0,1,3-1.13,4.18,4.18,0,0,1,3,1.06,3.77,3.77,0,0,1,1.12,2.9,5.51,5.51,0,0,1-.92,3,12.78,12.78,0,0,1-2.08,2.55c-.77.74-1.76,1.59-3,2.56h6.36v1.41h-8.89v-1.2Q202.15,65.48,203.49,64.27Z"/><path class="cls-1" d="M210.23,65.74V64.46l6.49-9h2v8.8h1.85v1.46h-1.85v3h-1.66v-3Zm6.91-8.5-5,7h5Z"/><rect class="cls-1" x="161.69" y="31.3" width="1" height="37.46"/><path class="cls-2" d="M13.18,22a8.75,8.75,0,1,0-8.85,15.1l13.66,8L26.85,30Zm4.18,20.63L5.25,35.54a6.93,6.93,0,0,1,7-12l12.1,7.1-.82,1.4Z"/><path class="cls-2" d="M26.78,69h.06A8.7,8.7,0,0,0,32,67.33l.39-.3a8.7,8.7,0,0,0,3.25-6.79V45.13H18.1v15.1A8.8,8.8,0,0,0,26.73,69S26.77,69,26.78,69Z"/><path class="cls-3" d="M26.46,44.07a1.37,1.37,0,0,0-.07-.16c0-.11-.1-.25-.18-.45a14.17,14.17,0,0,1-.49-1.67A11.61,11.61,0,0,1,26,35.64,10.42,10.42,0,0,1,28,32.07a13.61,13.61,0,0,1,3.48-2.79,10.87,10.87,0,0,1,4.54-1.52,20.1,20.1,0,0,1,4.8.31,14.83,14.83,0,0,0,4.55.12,10.72,10.72,0,0,0,4.06-1.63,13,13,0,0,0,3.1-2.78,13.23,13.23,0,0,0,1.91-3.23A15.3,15.3,0,0,0,55.57,15c0-.68,0-1.23-.07-1.59s0-.57,0-.57,0,.2.07.57.09.9.12,1.59a15.15,15.15,0,0,1-.93,5.62A13.46,13.46,0,0,1,49.77,27a11.29,11.29,0,0,1-4.24,1.91,15.11,15.11,0,0,1-4.79.1,18.85,18.85,0,0,0-4.55-.09,9.83,9.83,0,0,0-4,1.52,12,12,0,0,0-3,2.65,8.66,8.66,0,0,0-1.57,3.08,9.55,9.55,0,0,0,.08,5.11,10.59,10.59,0,0,0,.48,1.37c.07.15.12.26.16.33a.55.55,0,0,1,0,.1Z"/><path class="cls-3" d="M32.53,28.82A27,27,0,0,0,33,25.69c.06-.64,0-1.35.07-2.09a19.15,19.15,0,0,0,0-2c1.59-.54,7.7-3.13,3.52-10.19-4.77-8.07-9-8.42-9-8.42s-4.37,1.71-2.81,9.69,5.44,8.51,5.44,8.51,1.62-2.75-.81-12.08c-.38-1.45-.14-1.79.05-1.87l.05.12c.22.6.55,1.22.74,1.92s.39,1.45.59,2.22.36,1.32.55,2l.45,2.64c.09.92.31,1.81.34,2.72s.06,1.65.08,2.44a14.16,14.16,0,0,1,0,2.27c-.05.72-.07,1.4-.15,2a27.58,27.58,0,0,1-.54,3,6.45,6.45,0,0,1-.3,1.1l1.13.33A11.11,11.11,0,0,0,32.53,28.82Z"/><path class="cls-3" d="M48.2,27.54a13.68,13.68,0,0,0,.64-1.28c.12-.27.21-.57.33-.88a7.21,7.21,0,0,0,.27-.86c.76,0,3.75-.23,3-3.85-.87-4.14-2.63-4.9-2.63-4.9s-2.12.1-2.6,3.73,1.09,4.43,1.09,4.43,1.09-.94,1.4-5.28c0-.68.2-.79.3-.79v.06a6.79,6.79,0,0,1,0,.92c0,.33,0,.68-.06,1s-.05.85-.07,1.29l-.14.68c-.12.45-.15.93-.28,1.38s-.21.71-.32,1.05a6.79,6.79,0,0,1-.35,1c-.12.3-.23.59-.36.85-.26.5-.47.92-.65,1.19a5,5,0,0,1-.29.42l.43.31A4.59,4.59,0,0,0,48.2,27.54Z"/><path class="cls-3" d="M55.51,16.51c0-.18,0-.36,0-.55a10.48,10.48,0,0,0,0-1.12c0-.32,0-.64-.09-1s-.11-.57-.17-.84-.1-.55-.16-.8a6.21,6.21,0,0,0-.22-.69.06.06,0,0,0,0,0c-.07,0-.16.14-.06.66.65,3.33,0,4.26,0,4.26s-1.35-.27-1.73-3.11S54.26,10,54.26,10s1.48.22,3,3.16c1.31,2.58-.89,3.35-1.46,3.51Z"/><path class="cls-3" d="M63.18,40.29A3.78,3.78,0,0,1,64,42.71a3.89,3.89,0,0,1-1.37,3.13A5.81,5.81,0,0,1,58.8,47H51.48V31.28h7.07a5.8,5.8,0,0,1,3.75,1.09,4,4,0,0,1,.63,5.29A3.79,3.79,0,0,1,61,38.93,3.67,3.67,0,0,1,63.18,40.29ZM55.3,37.63h2.51a2.22,2.22,0,0,0,1.45-.41,1.5,1.5,0,0,0,.5-1.22,1.53,1.53,0,0,0-.5-1.23,2.22,2.22,0,0,0-1.45-.43H55.3Zm4.31,5.83a1.55,1.55,0,0,0,.53-1.26,1.62,1.62,0,0,0-.55-1.3,2.26,2.26,0,0,0-1.51-.47H55.3V43.9h2.82A2.21,2.21,0,0,0,59.61,43.46Z"/><path class="cls-3" d="M71.47,31.28V47H67.64V31.28Z"/><path class="cls-3" d="M79,46.12a7.72,7.72,0,0,1-2.93-2.88,8.43,8.43,0,0,1,0-8.29A7.69,7.69,0,0,1,79,32.08a8.54,8.54,0,0,1,8.13,0A7.57,7.57,0,0,1,90.06,35a8.6,8.6,0,0,1,0,8.29,7.73,7.73,0,0,1-2.91,2.88,8.52,8.52,0,0,1-8.12,0ZM86.1,42.4a4.76,4.76,0,0,0,1.13-3.31,4.78,4.78,0,0,0-1.13-3.33,4.32,4.32,0,0,0-6,0,4.77,4.77,0,0,0-1.13,3.34,4.74,4.74,0,0,0,1.13,3.32,3.91,3.91,0,0,0,3,1.25A3.87,3.87,0,0,0,86.1,42.4Z"/><path class="cls-3" d="M106,31.28v3.06H101.8V47H98V34.34H93.81V31.28Z"/><path class="cls-3" d="M113.13,34.34v3.18h5.12v3h-5.12v3.44h5.79V47H109.3V31.28h9.62v3.06Z"/><path class="cls-3" d="M123.18,35A7.11,7.11,0,0,1,126,32.12a8.13,8.13,0,0,1,4.08-1,7.84,7.84,0,0,1,4.79,1.47,7.13,7.13,0,0,1,2.67,4h-4.21A3.54,3.54,0,0,0,132,35.1a3.79,3.79,0,0,0-2-.51,3.66,3.66,0,0,0-2.87,1.23,4.77,4.77,0,0,0-1.1,3.29,4.77,4.77,0,0,0,1.1,3.29A3.66,3.66,0,0,0,130,43.63a3.79,3.79,0,0,0,2-.51,3.43,3.43,0,0,0,1.33-1.5h4.21a7.07,7.07,0,0,1-2.67,4,7.9,7.9,0,0,1-4.79,1.46,8.13,8.13,0,0,1-4.08-1,7.15,7.15,0,0,1-2.81-2.83,9,9,0,0,1,0-8.29Z"/><path class="cls-3" d="M154.9,31.28V47h-3.83V40.52h-5.95V47h-3.83V31.28h3.83v6.15h5.95V31.28Z"/><path class="cls-4" d="M60.55,61.48A3.77,3.77,0,0,1,59,63a5.56,5.56,0,0,1-2.65.57h-2v4.63H51.23V55.27h5.09a5.73,5.73,0,0,1,2.61.54,3.58,3.58,0,0,1,1.6,1.47,4.5,4.5,0,0,1,0,4.2Zm-3.13-.86a1.55,1.55,0,0,0,.45-1.19,1.58,1.58,0,0,0-.45-1.2,1.87,1.87,0,0,0-1.34-.42H54.37v3.24h1.71A1.83,1.83,0,0,0,57.42,60.62Z"/><path class="cls-4" d="M72,61.48A3.77,3.77,0,0,1,70.44,63a5.56,5.56,0,0,1-2.65.57h-2v4.63H62.7V55.27h5.09a5.73,5.73,0,0,1,2.61.54A3.53,3.53,0,0,1,72,57.28a4.21,4.21,0,0,1,.54,2.15A4.09,4.09,0,0,1,72,61.48Zm-3.12-.86a1.58,1.58,0,0,0,.44-1.19,1.61,1.61,0,0,0-.44-1.2,1.9,1.9,0,0,0-1.35-.42H65.84v3.24h1.71A1.86,1.86,0,0,0,68.9,60.62Z"/><path class="cls-4" d="M83.79,62.67a3.2,3.2,0,0,1,.68,2,3.17,3.17,0,0,1-1.13,2.56,4.79,4.79,0,0,1-3.15,1h-6V55.27H80a4.77,4.77,0,0,1,3.08.9,3,3,0,0,1,1.12,2.45,2.93,2.93,0,0,1-.6,1.89A3,3,0,0,1,82,61.56,3,3,0,0,1,83.79,62.67Zm-6.47-2.18h2.06a1.79,1.79,0,0,0,1.18-.34,1.2,1.2,0,0,0,.42-1,1.24,1.24,0,0,0-.42-1,1.79,1.79,0,0,0-1.18-.35H77.32Zm3.54,4.79a1.28,1.28,0,0,0,.43-1,1.33,1.33,0,0,0-.45-1.07,1.84,1.84,0,0,0-1.24-.39H77.32v2.85h2.31A1.88,1.88,0,0,0,80.86,65.28Z"/><path class="cls-4" d="M86.58,58.3A6,6,0,0,1,88.89,56a6.8,6.8,0,0,1,3.36-.83,6.4,6.4,0,0,1,3.93,1.21,5.84,5.84,0,0,1,2.19,3.31H94.91a2.73,2.73,0,0,0-1.09-1.23,3.24,3.24,0,0,0-4,.58,3.94,3.94,0,0,0-.9,2.71,3.9,3.9,0,0,0,.9,2.7,3,3,0,0,0,2.35,1A3.09,3.09,0,0,0,93.82,65a2.73,2.73,0,0,0,1.09-1.23h3.46a5.82,5.82,0,0,1-2.19,3.3,6.46,6.46,0,0,1-3.93,1.2,6.8,6.8,0,0,1-3.36-.83,6,6,0,0,1-2.31-2.33,7.48,7.48,0,0,1,0-6.81Z"/><path class="cls-4" d="M108.21,60.42V63h-8.09V60.42Z"/><path class="cls-4" d="M111.11,65.2c1.2-1,2.15-1.81,2.84-2.44a12.07,12.07,0,0,0,1.76-2,3.68,3.68,0,0,0,.71-2,1.79,1.79,0,0,0-.35-1.18,1.27,1.27,0,0,0-1-.42,1.31,1.31,0,0,0-1.1.53,2.44,2.44,0,0,0-.39,1.48h-3a5.31,5.31,0,0,1,.67-2.62A4,4,0,0,1,112.85,55a5.29,5.29,0,0,1,2.31-.5,4.47,4.47,0,0,1,3.3,1.13,4,4,0,0,1,1.11,2.92,5.76,5.76,0,0,1-1.34,3.65,20.34,20.34,0,0,1-3.42,3.28h5V68h-9.23V65.66A7,7,0,0,0,111.11,65.2Z"/><path class="cls-4" d="M122.37,56.3a5.19,5.19,0,0,1,7.89,0,8.92,8.92,0,0,1,1.22,5,8.92,8.92,0,0,1-1.22,5,5.17,5.17,0,0,1-7.89,0,8.92,8.92,0,0,1-1.22-5A8.92,8.92,0,0,1,122.37,56.3ZM128,58.43a1.89,1.89,0,0,0-3.35,0,7.91,7.91,0,0,0-.4,2.86,12.87,12.87,0,0,0,.14,2.06,2.68,2.68,0,0,0,.6,1.33,2,2,0,0,0,2.67,0,2.68,2.68,0,0,0,.6-1.33,12.87,12.87,0,0,0,.14-2.06A7.91,7.91,0,0,0,128,58.43Z"/><path class="cls-4" d="M133.6,65.2c1.2-1,2.14-1.81,2.84-2.44a12,12,0,0,0,1.75-2,3.62,3.62,0,0,0,.72-2,1.84,1.84,0,0,0-.35-1.18,1.45,1.45,0,0,0-2.14.11,2.37,2.37,0,0,0-.4,1.48h-3a5.21,5.21,0,0,1,.67-2.62A3.93,3.93,0,0,1,135.33,55a5.35,5.35,0,0,1,2.31-.5,4.44,4.44,0,0,1,3.3,1.13,4,4,0,0,1,1.11,2.92,5.7,5.7,0,0,1-1.34,3.65,19.6,19.6,0,0,1-3.42,3.28h5V68H133V65.66Z"/><path class="cls-4" d="M149.76,57.36a1.49,1.49,0,0,0-1-.34,1.57,1.57,0,0,0-1.51.91,7.14,7.14,0,0,0-.48,2.88,2.7,2.7,0,0,1,1.17-1,3.76,3.76,0,0,1,1.68-.37,3.84,3.84,0,0,1,2.9,1.14,4.4,4.4,0,0,1,1.09,3.18A4.91,4.91,0,0,1,153,66.1a3.82,3.82,0,0,1-1.58,1.58,5,5,0,0,1-2.45.57c-1.89,0-3.2-.59-3.94-1.77a9.66,9.66,0,0,1-1.1-5.1,9.38,9.38,0,0,1,1.16-5.2,4.24,4.24,0,0,1,3.75-1.7,4.6,4.6,0,0,1,2.32.54,3.8,3.8,0,0,1,1.44,1.43,5,5,0,0,1,.58,1.93h-2.93A2,2,0,0,0,149.76,57.36Zm-2.26,5a1.72,1.72,0,0,0-.52,1.33,1.72,1.72,0,0,0,1.88,1.88,1.69,1.69,0,0,0,1.27-.49,1.8,1.8,0,0,0,.47-1.33,1.9,1.9,0,0,0-.46-1.36,1.7,1.7,0,0,0-1.32-.5A1.92,1.92,0,0,0,147.5,62.38Z"/></svg>